<?xml version="1.0" standalone="no"?>
<!DOCTYPE svg PUBLIC "-//W3C//DTD SVG 20010904//EN"
 "http://www.w3.org/TR/2001/REC-SVG-20010904/DTD/svg10.dtd">
<svg version="1.0" xmlns="http://www.w3.org/2000/svg"
 width="1280.000000pt" height="944.000000pt" viewBox="0 0 1280.000000 944.000000"
 preserveAspectRatio="xMidYMid meet">
<metadata>
Created by potrace 1.15, written by Peter Selinger 2001-2017
</metadata>
<g transform="translate(0.000000,944.000000) scale(0.100000,-0.100000)"
fill="#000000" stroke="none">
<path d="M6428 9430 c-232 -15 -537 -40 -668 -55 -376 -45 -644 -134 -855
-283 -98 -70 -305 -276 -442 -440 -310 -370 -711 -962 -916 -1352 -122 -233
-180 -385 -282 -750 -68 -240 -117 -395 -140 -440 -9 -16 -67 -58 -159 -113
-528 -314 -978 -676 -1296 -1042 -75 -86 -235 -303 -311 -420 -81 -126 -233
-428 -281 -560 -129 -348 -175 -608 -165 -922 7 -201 26 -315 83 -488 101
-307 276 -582 549 -863 386 -398 866 -705 1460 -934 1324 -510 2694 -497 4395
42 1200 381 2177 924 3116 1733 643 554 1087 1143 1254 1663 128 400 128 959
0 1292 -102 264 -340 566 -625 792 -195 155 -492 323 -707 400 l-96 35 -7 55
c-48 386 -250 1197 -389 1563 -31 80 -33 96 -5 45 11 -21 22 -38 24 -38 14 0
-133 256 -229 400 -91 138 -215 238 -332 269 -23 6 -129 15 -235 20 -209 10
-230 14 -554 101 -408 109 -1012 233 -1325 271 -190 23 -636 33 -862 19z"/>
</g>
</svg>
